<?xml version="1.0" encoding="utf-8"?><svg xmlns="http://www.w3.org/2000/svg" xmlns:xlink="http://www.w3.org/1999/xlink"><symbol viewBox="0 0 512 512" id="box" xmlns="http://www.w3.org/2000/svg"><path d="M174.615 100.638a6 6 0 003.758 7.608l15.5 5.248a31.076 31.076 0 0039.4-19.467 6 6 0 00-3.757-7.608l-39.25-13.291a6 6 0 00-7.608 3.759zm17.485-14.22l26.977 9.136a19.107 19.107 0 01-21.355 6.574l-9.817-3.328z"/><path d="M115 128.125l9.331 3.159a16.9 16.9 0 0030.251 10.245l35.463 12.009a16.9 16.9 0 0030.255 10.245l9.385 3.178a6 6 0 007.607-3.758 25.52 25.52 0 00-15.992-32.358l-2.358-.8a56.536 56.536 0 006.623-2.75 55.342 55.342 0 0028.09-32.079l4.245-12.525a6 6 0 00-3.757-7.607l-50.77-17.193a31.541 31.541 0 00-13.6-49.959 31.565 31.565 0 00-36.478 11.691l-17.022-2.71a6 6 0 00-6.625 4 14.223 14.223 0 008.583 17.836L148 42.276a31.492 31.492 0 002.845 9.184l-2.716 8.02a55.639 55.639 0 006.454 48.769l-10.98-3.718a25.549 25.549 0 00-32.358 15.986 6 6 0 003.755 7.608zm110.241 20.9a13.557 13.557 0 011.286 4.2l-2.692-.912a16.978 16.978 0 00-2.8-8.261 13.451 13.451 0 014.204 4.976zm-13.624 5.946a4.931 4.931 0 11-3.084-6.241 4.888 4.888 0 013.082 6.244zm-52.128-91.642l3.557-10.5a6 6 0 00-.553-5.036 19.538 19.538 0 1130.245 3.932 9.854 9.854 0 003.623 16.463l48.251 16.339-2.317 6.845a43.712 43.712 0 01-82.8-28.041zm42.892 73.778a16.923 16.923 0 00-8.191 5.165l-36.063-12.212a16.906 16.906 0 00-3.366-9.079zm-65.811-7.546a4.922 4.922 0 119.325 3.156 4.922 4.922 0 01-9.325-3.157zm-7.147-12.98a13.443 13.443 0 016.237-1.395 16.985 16.985 0 00-7.175 4.836l-2.631-.891a13.519 13.519 0 013.569-2.55z"/><path d="M175.356 42.29a8.057 8.057 0 007.623-5.459v-.005a8.042 8.042 0 10-7.625 5.464zm150.481 25.12a7.2 7.2 0 00.25.206 8.136 8.136 0 002.3 1.291 8.229 8.229 0 002.6.444h.107c.091 0 .182 0 .274-.006 26.777-1.226 40.919-16.287 43.056-30.67a.1.1 0 01.007-.044c1.529-10.845-3.834-20.386-13.347-23.742a26.253 26.253 0 00-13.291-.807 25.613 25.613 0 00-10.976-7.9c-9.581-3.382-19.75.768-25.3 10.315-7.403 12.675-5.848 33.335 14.32 50.913zm-3.948-44.873c2.088-3.591 5.019-5.53 8.173-5.53a8.286 8.286 0 012.765.489c2.644.933 5.256 3.237 7.553 6.662a6 6 0 006.691 2.41c3.868-1.148 7.426-1.278 10.024-.362 4.153 1.465 6.193 5.475 5.459 10.729-1.387 9.244-11.209 18.946-30.065 20.324-13.858-12.767-15.382-26.538-10.6-34.722zm81.457 180.771c-7.407 12.676-5.853 33.336 14.315 50.915.085.075.173.147.263.216a7.745 7.745 0 004.891 1.725h.107c.092 0 .182 0 .274-.006 26.778-1.226 40.919-16.287 43.056-30.67a.1.1 0 01.007-.044c1.529-10.845-3.834-20.386-13.346-23.741a26.224 26.224 0 00-13.292-.807 25.607 25.607 0 00-10.976-7.9c-9.583-3.385-19.745.768-25.299 10.312zm21.306 1c2.644.933 5.255 3.236 7.552 6.662a6 6 0 006.691 2.411c3.871-1.15 7.431-1.278 10.025-.362 4.153 1.465 6.193 5.475 5.459 10.729-1.387 9.243-11.21 18.945-30.066 20.324-13.858-12.769-15.381-26.539-10.6-34.723 2.087-3.591 5.019-5.53 8.174-5.53a8.285 8.285 0 012.765.49zM87.684 237.39q2.335 0 4.8-.167a5.98 5.98 0 00.331-.032 7.754 7.754 0 004.682-2.236c.093-.089.184-.182.271-.277 18.068-19.8 17.418-40.452 8.756-52.133a.369.369 0 00-.025-.034c-6.589-8.752-17.129-11.706-26.225-7.352a26.258 26.258 0 00-9.968 8.829 25.614 25.614 0 00-13.351 2.172c-9.165 4.384-13.421 14.509-10.6 25.183 3.499 13.328 17.545 26.047 41.329 26.047zm-25.554-40.4a12.851 12.851 0 015.55-1.1 23.394 23.394 0 014.5.472 6 6 0 006.435-3.027c1.925-3.549 4.352-6.158 6.833-7.345 3.976-1.9 8.25-.5 11.446 3.726 5.556 7.516 5.472 21.322-6.888 35.631-18.835.771-29.642-7.889-32.048-17.056-1.367-5.178.192-9.402 4.172-11.306z"/><path d="M368.322 139.519a9.07 9.07 0 00-12.149 4.109l-64.448 130.323a12.28 12.28 0 005.564 16.449l28.572 14.13a12.284 12.284 0 0016.45-5.563l16.047-32.45 53.175 17.91-129.424 64.631-129.43-64.633 45.773-15.434a225.861 225.861 0 0119.394 31.85 17.014 17.014 0 002.992 4.279 16.848 16.848 0 1022.391-25.053 265.449 265.449 0 01-27.739-24l-9.694-9.8a37.328 37.328 0 00-10.183-52.619 6.28 6.28 0 00-.514-.334 37.346 37.346 0 10-19.932 68.96A37.019 37.019 0 00184 261.2l-48.825 16.464a5.974 5.974 0 00-3.4 2.891l-29.475 56.09a6 6 0 002.493 8.089l29.176 15.514v72.026a6 6 0 003.388 5.4L279.5 506.4a6 6 0 005.223 0l142.14-68.726a6 6 0 003.389-5.4v-72.026l29.176-15.514a6 6 0 002.493-8.089l-29.482-56.088a5.979 5.979 0 00-3.4-2.893l-.064-.021h-.014l-65.236-21.973 43.033-87.02a9.069 9.069 0 00-4.11-12.148l-4.064-2.01 28.425-57.479a6 6 0 00-2.718-8.038l-15.444-7.637a6 6 0 00-8.038 2.718l-28.426 57.479zM235.934 289.594a4.853 4.853 0 01.166 7.573 4.911 4.911 0 01-6.591-.342 5.027 5.027 0 01-.882-1.253 214.136 214.136 0 00-13.1-22.862c5.953 5.405 12.623 10.92 20.407 16.884zm-46.017-30.389c.39-.169.781-.331 1.166-.514l.07.1zm-39.988-36.45a25.316 25.316 0 0125.227-23.181 25.494 25.494 0 0110.473 2.249 35.884 35.884 0 01-9.471 18.517 36.253 36.253 0 01-5.643 4.76 35.868 35.868 0 01-19.864 6.213 25.357 25.357 0 01-.722-8.558zm7.337 20.055a47.839 47.839 0 0020.012-7.8 48.217 48.217 0 007.509-6.332 47.817 47.817 0 0011.056-18.42 25.229 25.229 0 01-2.428 32.229 25.741 25.741 0 01-1.9 1.78q-.5.422-1.022.818c-.346.263-.7.517-1.052.758a25.228 25.228 0 01-32.175-3.033zM115.7 336.942l23.971-45.6 134.388 67.11-24.766 49.53zm160.409 154.492L145.97 428.51v-61.881l103.121 54.836a6 6 0 008.183-2.614l18.835-37.671zM418.25 428.51l-130.141 62.924V381.18l18.836 37.671a6 6 0 008.184 2.614l103.121-54.836zm30.27-91.568l-133.593 71.039-24.767-49.53 134.389-67.11zM408.907 94.747l4.688 2.318-6.74 13.629-4.688-2.318zM308.189 282.4l14.059-6.518 3.354 15.129zm28.145 1.582l-3.529-15.921 52.575-106.719 9.323 4.611zm60.513-164.852l4.689 2.318-13.706 27.718-4.689-2.319zm-74.8 143.619l-14.786 6.855 58.37-118.032 8.994 4.448z"/><path d="M307.464 163.913a41.267 41.267 0 005.784-.41 40.967 40.967 0 10-5.784.41zm23.206-23.579a28.786 28.786 0 01-13.908 10.055 24.045 24.045 0 016.491-11.253 23.536 23.536 0 0111.438-6.147 29.107 29.107 0 01-4.021 7.345zm5.529-21.492c.083.585.142 1.169.19 1.753a35.743 35.743 0 00-32.07 31.142 28.939 28.939 0 01-12.614-4.527l40.106-40.11a28.912 28.912 0 014.389 11.742zm-36.221-23.927a23.189 23.189 0 01-6.9 13.065 23.739 23.739 0 01-13.328 6.509 29.062 29.062 0 0120.228-19.574zm1.422 21.714a35.071 35.071 0 0010.746-22.345 28.775 28.775 0 0111.173 4.343l-40.114 40.113a28.814 28.814 0 01-4.423-11.755c-.016-.114-.025-.228-.04-.342a35.6 35.6 0 0022.658-10.014zm3.62 89.817a12.151 12.151 0 00-10.058-8.587 45.366 45.366 0 00-52.095-20.344l-15.5 4.618a11.691 11.691 0 00-6.8 17.034l10.646 18.5a44.968 44.968 0 015.886 19.759l1.213 21.313a11.7 11.7 0 0011.652 11.033 11.772 11.772 0 003.356-.491l15.505-4.618a45.368 45.368 0 0032.475-45.531 12.186 12.186 0 003.72-12.686zm-35.784-16.066a65.337 65.337 0 00-14.374 1.223l-1.732-3.889a33.039 33.039 0 0116.106 2.666zm-18.967 67.293l-1.191-20.924a57.021 57.021 0 00-7.464-25.061l-10.451-18.166 10.08-3 9.094 20.418a87.519 87.519 0 016.453 21.667l3.559 22.066zm21.565-7.157l-.678-4.2a65.3 65.3 0 0012.709-6.853 33.053 33.053 0 01-12.031 11.053zm-2.649-16.428l-.547-3.394a99.508 99.508 0 00-7.34-24.639l-1.4-3.14c13.908-2.013 24.661 1.619 27.6 7.324.147.43.291.861.422 1.3s.245.876.357 1.315c.659 6.374-6.355 15.307-19.092 21.234z"/></symbol><symbol viewBox="0 0 512 512" id="farm" xmlns="http://www.w3.org/2000/svg"><g data-name="Out line"><path d="M492.438 145.344l-46.021-30.68-23.063-53.815a8 8 0 00-3.47-3.842l-72-40A8 8 0 00344 16H208a7.978 7.978 0 00-3.884 1.009v-.002l-72 40a8 8 0 00-3.47 3.842l-24 56A8 8 0 00104 120v40H88v-16H72v16H48v-16H32v16H16v16h16v16H16v16h472a8 8 0 008-8v-48a8 8 0 00-3.563-6.656zM312 134.948l32 21.333V192h-32zM360 160h72v32h-72zm-5.578-16l-24-16h107.156l24 16zm73.446-32H309.275l-17.142-40h118.592zm-85.941-80l43.2 24H282.073l-43.2-24zM142.275 69.665L208 33.151l65.725 36.514L296 121.643V192h-48v-56a8 8 0 00-8-8h-64a8 8 0 00-8 8v56h-48v-70.358zM216 144h16v48h-16zm-16 48h-16v-48h16zm-96-16v16H88v-16zm-56 0h24v16H48zm400 16v-32h32v32z"/><path d="M152 80h16v16h-16zm96 0h16v16h-16zm-48-32h16v16h-16zm-88 320a24 24 0 1024 24 24.027 24.027 0 00-24-24zm0 32a8 8 0 118-8 8.01 8.01 0 01-8 8z"/><circle cx="280" cy="408" r="8"/><path d="M320 408a40.052 40.052 0 00-24-36.65V336a8 8 0 00-6.868-7.92L280 326.777V304h-16v20.49l-30.868-4.41a7.994 7.994 0 00-6.373 1.877 7.66 7.66 0 00-.572.553l-7.873-5.249 4.841-9.683-14.31-7.156-16 32 14.31 7.156 3.948-7.895L224 340.281V360h-38.688a79.742 79.742 0 00-4.508-8.781l-12.96-64.788A8 8 0 00160 280h-32a8 8 0 00-8 8v24.405a80.779 80.779 0 00-8-.405 79.667 79.667 0 00-26.67 4.56l5.34 15.081A63.705 63.705 0 01112 328a63.818 63.818 0 0154.423 30.31 63.435 63.435 0 015.932 12.35l.001-.001.004.015a64.334 64.334 0 012.05 35.55 8 8 0 007.8 9.776h58.595a39.834 39.834 0 007.217 16h-96.884a56 56 0 10-78.276 0H16v16h480v-16H311.978A39.79 39.79 0 00320 408zM72 392a40 40 0 1140 40 40.046 40.046 0 01-40-40zm64-76.306V296h17.441l6.39 31.947A80.357 80.357 0 00136 315.694zM190.401 376H232a8 8 0 008-8v-30.776l40 5.714V368a40.068 40.068 0 00-39.195 32h-49.203a80.55 80.55 0 00.398-8 80.308 80.308 0 00-1.599-16zM256 408a24 24 0 1124 24 24.027 24.027 0 01-24-24zM16 480h480v16H16zm0-240h480v16H16zm280 48h200v16H296z"/><path d="M16 288h88v16H16zm296 48h184v16H312zm-296 0h40v16H16zm320 48h160v16H336zm-320 0h24v16H16z"/></g></symbol><symbol viewBox="0 0 512.38 512.38" id="fertilizer" xmlns="http://www.w3.org/2000/svg"><path d="M502.198 0c-49.626 0-90 40.374-90 90v16.03a77.8 77.8 0 00-15.045 24.782l-5.098-5.098C389.83 89.105 359.355 60 322.198 60h-20c-5.522 0-10 4.477-10 10 0 38.598 31.402 70 70 70h15.858c2.413 3.167 14.142 10.407 14.142 26.57V332H334.02c-11.594-49.758-40.916-110.208-84.316-147.235 6.417-5.506 10.494-13.666 10.494-22.765 0-16.542-13.458-30-30-30h-4.47l53.573-117.862a9.991 9.991 0 00-3.021-12.059 10.013 10.013 0 00-12.446.207c-.241.198-24.436 19.762-52.927 17.739-14.903-1.061-26.246-5.24-38.254-9.665C158.83 5.267 144.537 0 125.342 0h-.156C91.269.044 64.95 21.369 63.847 22.276a10 10 0 00-2.463 12.446L113.497 132h-3.299c-16.542 0-30 13.458-30 30 0 9.108 4.085 17.275 10.513 22.781-23.516 20.133-44.92 48.865-61.344 82.667C10.83 305.6.198 347.352.198 382c0 15.289 2.058 29.543 6.115 42.363 3.422 10.829 2.672 22.745-2.167 34.458-6.942 16.801-4.692 32.667 6.167 43.525 11.335 11.349 28.515 12.377 43.505 6.366 16.901-6.772 31.962-8.309 46.043-4.697 20.63 5.298 44.295 7.984 70.337 7.984s49.707-2.686 70.335-7.984c13.988-3.589 29.708-1.984 46.737 4.773 3.793 1.5 7.637 2.544 11.428 3.103.038.006.075.006.113.011 4.22.619 8.114.619 11.87.097h151.517a9.998 9.998 0 009.701-7.575l40-160a10.002 10.002 0 00-9.701-12.426h-90v-85.43c0-16.251 11.754-23.436 14.142-26.57h15.858c38.598 0 70-31.402 70-70 0-5.523-4.478-10-10-10h-20c-37.157 0-67.632 29.105-69.856 65.714l-.144.144V158.28c0-14.275 5.113-27.759 14.45-38.39 47.567-2.328 85.55-41.756 85.55-89.889V10c0-5.523-4.477-10-10-10zm-140 120c-24.146 0-44.35-17.206-48.995-40h8.995c24.146 0 44.35 17.206 48.995 40zm-132 32c5.514 0 10 4.486 10 10s-4.486 10-10 10h-31.72c1.11-3.13 1.72-6.494 1.72-10s-.61-6.87-1.72-10zM83.224 33.138c8.486-5.249 24.17-13.115 41.989-13.138h.124c15.631 0 27.666 4.434 40.402 9.127 12.789 4.712 26.015 9.585 43.75 10.848 14.613 1.042 28.053-2.135 39.005-6.391L203.759 132h-67.573zM180.198 162c0 5.513-4.485 9.999-9.998 10h-.005c-5.512-.001-9.998-4.487-9.998-10 0-5.514 4.486-10 10-10s10.001 4.486 10.001 10zm-70-10.01h31.72c-1.11 3.13-1.72 6.504-1.72 10.01s.61 6.87 1.72 10h-31.72c-5.514 0-10-4.486-10-10s4.487-10.01 10-10.01zm206.199 336.228c-1.93 1.936-4.391 3.198-7.344 3.782h-8.032a31.963 31.963 0 01-6.385-1.805c-21.033-8.346-40.907-10.214-59.076-5.551-19.006 4.881-40.997 7.355-65.362 7.355s-46.356-2.475-65.365-7.356c-18.091-4.641-37.758-2.789-58.456 5.505-6.898 2.766-16.275 3.708-21.918-1.94-6.325-6.325-4.485-15.319-1.828-21.75 6.657-16.114 7.608-32.754 2.752-48.125-3.44-10.87-5.185-23.094-5.185-36.333 0-60.038 37.524-149.856 93.661-190h32.197l-22.929 22.929c-3.905 3.905-3.905 10.237 0 14.143 3.906 3.905 10.236 3.905 14.143 0l32.929-32.929 32.929 32.929c3.906 3.905 10.236 3.905 14.143 0 3.905-3.905 3.905-10.237 0-14.143L194.341 192h32.165c41.543 29.718 77.386 90.289 89.655 151.958 2.679 13.42 4.037 26.22 4.037 38.042 0 13.208-1.731 25.398-5.148 36.237-4.727 15.013-3.596 31.702 3.271 48.26 2.645 6.387 4.46 15.338-1.924 21.721zM454.391 492H337.689c4.292-9.6 4.084-21.146-.893-33.16-3.517-8.481-6.834-21.368-2.671-34.593 3.135-9.942 5.051-20.759 5.755-32.247h139.511zm35-140l-5 20h-144.47c-.352-6.479-1.05-13.163-2.069-20zm-7.193-192.01h8.995c-4.646 22.794-24.85 40.01-48.995 40.01h-8.995c4.646-22.794 24.85-40.01 48.995-40.01zm10-129.99c0 35.203-26.122 64.421-60 69.288V90c0-35.203 26.122-64.421 60-69.288z"/><path d="M230.198 252h-120c-27.57 0-50 22.43-50 50v100c0 27.57 22.43 50 50 50h15c5.522 0 10-4.477 10-10s-4.478-10-10-10h-15c-13.036 0-24.152-8.361-28.28-20h5.02c14.417 0 28.569-6.75 38.832-18.523C134.396 383.57 151.208 372 170.198 372S206 383.569 214.63 393.481C224.889 405.25 239.041 412 253.458 412h5.02c-4.128 11.639-15.243 20-28.28 20h-15c-5.522 0-10 4.477-10 10s4.478 10 10 10h15c27.57 0 50-22.43 50-50V302c0-27.57-22.429-50-50-50zm-110 60c22.056 0 40 17.944 40 40-22.055 0-40-17.944-40-40zm60 40c0-22.056 17.944-40 40-40 0 22.056-17.944 40-40 40zm80 40h-6.74c-8.762 0-17.197-4.141-23.748-11.657-4.944-5.677-11.603-11.513-19.53-16.405 17.925-10.388 30.018-29.771 30.018-51.938v-10c0-5.523-4.478-10-10-10h-10c-20.85 0-39.243 10.696-50 26.884-10.757-16.188-29.15-26.884-50-26.884h-10c-5.522 0-10 4.477-10 10v10c0 22.167 12.092 41.55 30.018 51.938-7.926 4.891-14.584 10.726-19.526 16.401C104.136 387.859 95.7 392 86.938 392h-6.74v-90c0-16.542 13.458-30 30-30h120c16.542 0 30 13.458 30 30z"/><circle cx="170.198" cy="442" r="10"/></symbol><symbol viewBox="0 0 512 512" id="harvest" xmlns="http://www.w3.org/2000/svg"><path d="M56 424h16a8 8 0 000-16H56a8 8 0 000 16zm384 0h16a8 8 0 000-16h-16a8 8 0 000 16zM56 472h16a8 8 0 000-16H56a8 8 0 000 16zm192-48h16a8 8 0 000-16h-16a8 8 0 000 16zm0 48h16a8 8 0 000-16h-16a8 8 0 000 16zm192 0h16a8 8 0 000-16h-16a8 8 0 000 16zM147.622 264.467a8 8 0 00-10.361-4.545l-14.906 5.816a8 8 0 105.817 14.907l14.905-5.817a8 8 0 004.545-10.361z"/><path d="M485.779 208.072a37.974 37.974 0 00-30.992-41.458 67.975 67.975 0 00-113.574 0 37.661 37.661 0 00-12.727 4.807l30.981-80.549a8 8 0 00-4.937-10.462l-24-8a8 8 0 00-10 4.718L312 99.314V24a8 8 0 00-8-8h-32a8 8 0 00-8 8v75.318l-8.533-22.189a8 8 0 00-10-4.719l-24 8a8 8 0 00-4.937 10.462l34.271 89.1a77.693 77.693 0 015.2 28v9.039a56.648 56.648 0 00-7.726 3.651l-2.721-5.443A41.77 41.77 0 00207.987 192H189a8 8 0 00-7.155 11.578l6.6 13.2A41.77 41.77 0 00226.013 240h2.159a56.584 56.584 0 00-6.642 15.442 31.628 31.628 0 00-47.238 2.427l-1.878 2.349a59.89 59.89 0 00-5.017 7.337l-7.122-24.636a51.956 51.956 0 00-20.632-28.434 40.017 40.017 0 0013.249-46.539 40.271 40.271 0 00-41.687-25.216 48.017 48.017 0 00-78.872 30.78 40.288 40.288 0 00-13.587 46.79 39.855 39.855 0 0041.268 25.268 51.954 51.954 0 004.086 34.885L91.807 336H24a8 8 0 00-8 8v144a8 8 0 008 8h464a8 8 0 008-8V344a8 8 0 00-8-8h-50.1a49.685 49.685 0 015.541-16.074c.848.044 1.7.074 2.556.074a48.012 48.012 0 0044.424-66.194 37.983 37.983 0 00-4.645-45.734zm-87.15 114.55a65.376 65.376 0 00-5.674-16.269 58.378 58.378 0 005.045-2.711 57.971 57.971 0 006.07 3.176 65.612 65.612 0 00-5.441 15.804zm-21.147-11.28A49.686 49.686 0 01384 336h-8.483a65.6 65.6 0 00-5.87-20.188 47.962 47.962 0 007.835-4.47zm-23.711 8.513a49.69 49.69 0 015.58 16.145h-23.807a38.29 38.29 0 00-6.834-15.049l-8.534-11.383A47.752 47.752 0 00350 320q1.9 0 3.771-.145zM286.88 329.5a60.082 60.082 0 004.832-54.032l11.069-27.274a38.162 38.162 0 002.8 5.612A47.979 47.979 0 00304 285.69V312a8 8 0 001.6 4.8l10.311 13.752a22.38 22.38 0 013 5.449h-36.1zm45.843-239.493l8.805 2.935-31.264 81.285a93.52 93.52 0 00-6.064 27.925l-22.82 56.226-.407-.509a31.661 31.661 0 00-8.973-7.691v-12.073zM280 140V32h16v105.824a8 8 0 00.325 2.245L288 161.72l-8.039-20.9A8.135 8.135 0 00280 140zm-45.528-47.058l8.8-2.935 32.59 84.744a61.043 61.043 0 012.917 10.155l-7.1 15.5a93.52 93.52 0 00-5.943-26.178zM256 236.359v9.649a31.579 31.579 0 00-15.165 4.022A40.711 40.711 0 01256 234.681zm-53.242-26.732l-.814-1.627h6.043a25.857 25.857 0 0123.255 14.373l.814 1.627h-6.043a25.857 25.857 0 01-23.255-14.373zm-17.851 60.586l1.879-2.348a15.626 15.626 0 0125.2 1.093 18.8 18.8 0 0031.285 0 15.643 15.643 0 0118.118-6.1c.05.017.1.038.15.054a15.573 15.573 0 016.937 4.954l1.878 2.347a44.06 44.06 0 012.954 50.808L263.948 336h-72.631l-9.363-14.98a44.056 44.056 0 012.953-50.807zm-25.539 24.4c-.018-.054-.034-.107-.053-.161l.057.064-.004.101zM33.651 214.48A24.134 24.134 0 0144 184.971a8 8 0 004.006-6.695 32.008 32.008 0 0154.9-21.422 8 8 0 007.482 2.21 24.134 24.134 0 0127.6 14.7 23.922 23.922 0 01-18.922 32.458c-.279-.046-.556-.1-.835-.145a45.994 45.994 0 0110.786-21.132 8 8 0 10-11.868-10.73 62.1 62.1 0 00-14.8 29.731 7.969 7.969 0 00-3.62 1.25l-11.274-28.888a8 8 0 00-14.906 5.816l11.274 28.888a8 8 0 00-3.51 1.532A62.112 62.112 0 0049.288 200.7a8 8 0 10-1.464 15.934 45.986 45.986 0 0122.249 8.24c-.178.221-.344.451-.518.674a23.925 23.925 0 01-35.9-11.064zm70.277 109.976l13.52-5.276a8 8 0 10-5.817-14.905l-14.874 5.805-7.172-14.38 8.777-3.425a8 8 0 00-5.817-14.906l-10.132 3.954-4-8.015a35.438 35.438 0 01-1.369-28.888 36.314 36.314 0 013.834-7.326 39.618 39.618 0 007.788-8.236 36.125 36.125 0 018.77-4.923h.015l.016-.007a36.134 36.134 0 019.79-2.318 39.618 39.618 0 0011.3.783 36.251 36.251 0 017.787 2.793 35.433 35.433 0 0118.556 22.176l12.733 44.044c.05.175.114.342.176.511a8 8 0 00-8.918-2.185l-7.453 2.909a8 8 0 105.816 14.906l7.453-2.908a7.98 7.98 0 004.621-4.769 59.861 59.861 0 009.054 29.63l4.062 6.5h-62.757zM480 432H32v-32h448zm0 48H32v-32h448zm0-96H32v-32h448zm-58.263-48h-8.483a49.77 49.77 0 016.172-24.04 47.7 47.7 0 007.97 4.3 65.571 65.571 0 00-5.659 19.74zm53.284-88.071a8 8 0 00-.851 8.879A32.009 32.009 0 01446 304a31.67 31.67 0 01-19.633-6.742 8 8 0 00-3.877-1.621 41.9 41.9 0 01-19.685-8.033 8 8 0 00-9.61 0 41.9 41.9 0 01-19.685 8.033 8 8 0 00-3.877 1.621A31.67 31.67 0 01350 304a32.009 32.009 0 01-28.17-47.192 8 8 0 00-.851-8.879 21.97 21.97 0 01-1.96-25.043l.02-.034a22.071 22.071 0 014.9-5.766 8 8 0 002.665-7.99 21.987 21.987 0 0119.93-27.04 8 8 0 006.405-3.986 51.985 51.985 0 0190.13 0 8 8 0 006.405 3.986 21.985 21.985 0 0119.93 27.038 8 8 0 002.665 7.992A21.954 21.954 0 01480 234a21.726 21.726 0 01-4.979 13.929z"/><path d="M398 168a32.054 32.054 0 00-30.177 21.334 8 8 0 0015.086 5.332 16.009 16.009 0 0130.182 0 8 8 0 0015.086-5.332A32.054 32.054 0 00398 168zm-40 56a8 8 0 000-16 24 24 0 000 48 8 8 0 000-16 8 8 0 010-16zM72 360H56a8 8 0 000 16h16a8 8 0 000-16zm368 16h16a8 8 0 000-16h-16a8 8 0 000 16zm-176-16h-16a8 8 0 000 16h16a8 8 0 000-16zm-59.4-40a8 8 0 005.657-13.657 7.686 7.686 0 01-1.442-8.884l2.94-5.881a8 8 0 00-14.31-7.156L194.5 290.3a23.667 23.667 0 004.439 27.354A7.978 7.978 0 00204.6 320z"/></symbol><symbol viewBox="0 0 512 512" id="plant" xmlns="http://www.w3.org/2000/svg"><path d="M217.389 393.271l-.855-14.712a6.254 6.254 0 00-.049-.492 79.256 79.256 0 00-52.63-64.021l-4.782-1.664a46.844 46.844 0 01-17.619-11.05l-23.248-23.249-7.956-26.922A36.17 36.17 0 0079.03 224.6l-1.306-4.359a3.05 3.05 0 00-.045-.143c-3.706-11.327-16.032-18.619-28.593-17.786L48.69 201a32.6 32.6 0 00-39.136-22.334 6 6 0 00-4.454 6.919l25.473 137.087a6.012 6.012 0 00.215.824 87.051 87.051 0 0032.68 43.415l55.632 38.331c.1.073.212.143.323.208a18.633 18.633 0 018.233 10.422l4.23 57.151a6 6 0 004.071 5.246l1.145.384a122.94 122.94 0 0077.23.536l2.791-.894a6 6 0 004.169-5.714V440.6c0-13-1.143-27.05-3.6-44.236a39.185 39.185 0 01-.303-3.093zM98.676 254.33c.013.053.028.106.044.157l2.66 9a38.709 38.709 0 00-11.955-4.2l-6.487-21.647a24.155 24.155 0 0115.738 16.69zm-32.423-30.559l10.61 35.4a38.789 38.789 0 00-9.9 2.849L52.7 214.392c5.857.577 11.71 3.859 13.553 9.379zm143.041 244.423a110.962 110.962 0 01-65.736-.067l-3.981-53.787a5.879 5.879 0 00-.21-1.19 30.585 30.585 0 00-13.606-17.892L70.29 357.04a74.992 74.992 0 01-28-36.987L18.072 189.706a20.614 20.614 0 0119.121 14.727l19.319 64.41q-.655.6-1.287 1.23a6 6 0 00.2 8.672L83.292 304.2a180.767 180.767 0 0122.173 24.32 6 6 0 109.568-7.242 192.851 192.851 0 00-23.647-25.937L68.7 274.624a26.92 26.92 0 0133.008 3.933l31.26 31.259a58.9 58.9 0 0022.159 13.9l4.782 1.664a67.3 67.3 0 0144.657 54.125l.84 14.458c.078 1.361.217 2.741.411 4.1 2.37 16.61 3.475 30.126 3.475 42.54zm293.152-289.528a32.6 32.6 0 00-39.135 22.327l-.4 1.323c-12.558-.831-24.886 6.459-28.594 17.786-.015.047-.031.095-.045.143l-1.302 4.355a36.17 36.17 0 00-31.22 26.557l-7.957 26.923-23.247 23.248a46.848 46.848 0 01-17.618 11.05l-4.784 1.664a79.256 79.256 0 00-52.629 64.021 6.254 6.254 0 00-.049.492l-.855 14.716a36.946 36.946 0 01-.309 3.094c-2.453 17.185-3.6 31.24-3.6 44.235v31.977a6 6 0 004.062 5.678 124.547 124.547 0 0078.389.536l1.563-.51a6 6 0 004.111-5.131l5.492-57.223a18.629 18.629 0 018.252-10.481c.111-.065.218-.135.323-.208l55.652-38.338a87.037 87.037 0 0032.666-43.4 6.012 6.012 0 00.215-.824L506.9 185.585a6 6 0 00-4.454-6.919zm-56.7 45.1c1.843-5.523 7.7-8.806 13.556-9.381L445.54 260.4l-.5 1.619a38.789 38.789 0 00-9.9-2.849zm-32.466 30.721c.016-.051.031-.1.044-.157a24.155 24.155 0 0115.738-16.687l-6.488 21.648a38.756 38.756 0 00-11.954 4.2zm56.428 65.566a74.978 74.978 0 01-27.984 36.977l-55.485 38.228a30.585 30.585 0 00-13.606 17.892 5.884 5.884 0 00-.2 1.059l-5.17 53.861a112.6 112.6 0 01-64.558.132V440.6c0-12.414 1.1-25.93 3.475-42.539a49.14 49.14 0 00.411-4.1l.84-14.462a67.3 67.3 0 0144.656-54.125l4.784-1.664a58.907 58.907 0 0022.158-13.9l31.26-31.258a26.921 26.921 0 0133.008-3.934l-22.684 20.72a192.851 192.851 0 00-23.647 25.937 6 6 0 109.568 7.242 180.767 180.767 0 0122.173-24.32l27.872-25.458a6 6 0 00.195-8.672q-.631-.633-1.287-1.231l19.32-64.411a20.611 20.611 0 0119.12-14.725zM340.924 142.677c17.639-14.467 28.331-34.577 30.919-58.158l6.419-50.87a6 6 0 00-6.215-6.745c-52.716 2.3-94.065 55.281-92.172 118.1l.4 13.271a261.155 261.155 0 00-15.543 38.359 97.839 97.839 0 00-12.91-21.655 254.838 254.838 0 00-6.13-36.016c-5.964-23.212-21.316-41.211-41.067-48.147L141.68 68.705a6 6 0 00-7.983 5.918c1.67 38.991 15.63 72.222 38.3 91.171 14.026 11.724 31.131 17.759 50.03 17.759a93.993 93.993 0 0012.51-.853l7.724-.479a86.269 86.269 0 0113.553 24.447c4.079 11.359 5.54 22.28 4.371 32.525h-62.664a6 6 0 00-5.957 6.728l8.328 68.166a6 6 0 005.956 5.272h100.3a6 6 0 005.956-5.272l8.328-68.166a6 6 0 00-5.957-6.728h-42.231a77.325 77.325 0 00-.809-20.258c3.592-18.583 10.8-37.506 19.043-54.27 18.898-2.995 36.746-10.752 50.446-21.988zm24.5-103.1l-5.488 43.49-.012.1c-4.336 39.7-33.284 60.493-62.228 67.8 4.306-7.658 8.684-14.6 12.815-20.517l23.721-33.963a6 6 0 00-9.838-6.871l-23.721 33.963a247.448 247.448 0 00-8.8 13.575c1.47-50.054 32.84-91.56 73.546-97.579zM194.34 120.9a6 6 0 10-8.082 8.871l45.226 41.2c-20.1 2.364-37.523-2.456-51.792-14.382-18.382-15.366-30.323-41.847-33.385-73.538l54.341 19.084c15.963 5.606 28.456 20.489 33.421 39.811 1.431 5.568 2.685 11.789 3.761 18.572zM307.7 251.193l-6.861 56.166h-89.68l-6.859-56.166z"/></symbol><symbol viewBox="0 0 512 512" id="tractor" xmlns="http://www.w3.org/2000/svg"><path d="M115.882 416.235a52.118 52.118 0 10-52.117-52.117 52.177 52.177 0 0052.117 52.117zm0-88.235a36.118 36.118 0 11-36.117 36.118A36.158 36.158 0 01115.882 328zm277.042 96A32.925 32.925 0 10360 391.076 32.962 32.962 0 00392.924 424zm0-49.849A16.925 16.925 0 11376 391.076a16.945 16.945 0 0116.924-16.925z"/><path d="M472 344h-8v-65.418A46.634 46.634 0 00417.418 232H376v-32a8 8 0 00-8-8h-8v-35.719l20.438-13.625a8 8 0 00-8.876-13.312l-24 16A8 8 0 00344 152v40h-8a8 8 0 00-8 8v32h-18.047L266.619 87.553A8 8 0 00272 80V62a22.025 22.025 0 00-22-22H102a22.025 22.025 0 00-22 22v18a8 8 0 005.963 7.728L56.646 212.33l-38.792 46.549A8 8 0 0024 272h40a8 8 0 005.657-2.343l9.1-9.1 5.808 8.713A99.884 99.884 0 10211.8 392h108.223a72.907 72.907 0 00145.8 0H472a24 24 0 000-48zm-54.582-96A30.617 30.617 0 01448 278.582v64.777a72.708 72.708 0 00-72-23.2V248zM344 208h16v118.039a73.251 73.251 0 00-16 11.008zm-51.159 168l-16.762-32H296v32zM74.1 208l28.236-120H120v120zM136 88h16v120h-16zm32 0h82.048l43.2 144H278c-.566 0-1.127.019-1.685.05l-11.239-16.857 3.724-2.793a8 8 0 10-9.6-12.8l-24 18a8 8 0 109.6 12.8l7.457-5.593 8.462 12.693A29.98 29.98 0 00248 262v28.4l-40.913-78.107A8 8 0 00200 208h-32zm110 160h18v16h-32v-2a14.015 14.015 0 0114-14zm-14 32h32v16h-32zm-.046 40.852A8.262 8.262 0 00264 320v-8h32v16h-28.3zM96 62a6.006 6.006 0 016-6h148a6.006 6.006 0 016 6v10H96zM32.9 376.312l20.3-13.538a8 8 0 10-8.875-13.312l-12.041 8.027a83.428 83.428 0 0116.325-43.423l23.9 4.781a8.11 8.11 0 001.578.157 8 8 0 001.56-15.847L61.5 300.328a83.544 83.544 0 0142.186-19.2l13.538 20.306a8 8 0 0013.312-8.876l-8.027-12.041a83.429 83.429 0 0143.423 16.326l-4.781 23.9a8 8 0 1015.69 3.139l2.829-14.148a83.551 83.551 0 0119.2 42.188l-20.306 13.537a8 8 0 108.876 13.312l12.041-8.027a83.419 83.419 0 01-16.326 43.422l-23.9-4.779a8 8 0 00-3.137 15.689l14.147 2.829a83.559 83.559 0 01-42.188 19.2L114.538 426.8a8 8 0 10-13.312 8.875l8.027 12.041a83.418 83.418 0 01-43.422-16.325l4.779-23.9a8 8 0 10-15.689-3.136L52.092 418.5A83.568 83.568 0 0132.9 376.312zm82.986-112.077a100.224 100.224 0 00-14.719 1.087L94.948 256h84.236l63.529 120h-27.658a99.877 99.877 0 00-99.173-111.765zM260.816 376L191.07 244.257A8 8 0 00184 240H80a8 8 0 00-5.657 2.343L60.687 256H41.08l26.667-32h127.412l79.619 152zM312 248h16v109.933A72.308 72.308 0 00321.576 376H312zm25.281 155.061l10.4-7.233a8 8 0 00-9.137-13.135l-2.105 1.465a56.518 56.518 0 018.7-23.949l12.436 2.233a8 8 0 002.828-15.748l-2.492-.447a56.708 56.708 0 0123.034-10.815l7.233 10.4a8 8 0 0013.135-9.137l-1.465-2.105a56.54 56.54 0 0123.948 8.7l-2.232 12.437a8 8 0 1015.748 2.828l.447-2.492a56.708 56.708 0 0110.815 23.034l-10.4 7.232a8 8 0 109.137 13.135l2.105-1.465a56.54 56.54 0 01-8.7 23.949l-12.438-2.232a8 8 0 00-2.826 15.748l2.49.447a56.7 56.7 0 01-23.033 10.814l-7.232-10.4a8 8 0 10-13.135 9.137l1.465 2.105a56.513 56.513 0 01-23.949-8.7l2.232-12.437a8 8 0 00-15.748-2.826l-.447 2.49a56.709 56.709 0 01-10.814-23.033zM472 376h-7.728a72.3 72.3 0 00-5.394-16H472a8 8 0 010 16z"/><path d="M400 296a8 8 0 008-8v-16a8 8 0 00-16 0v16a8 8 0 008 8zm24 0a8 8 0 008-8v-16a8 8 0 00-16 0v16a8 8 0 008 8z"/></symbol><symbol viewBox="0 0 512 512" id="watering-plants" xmlns="http://www.w3.org/2000/svg"><g data-name="Watering Timer"><circle cx="264" cy="232" r="8"/><circle cx="280" cy="280" r="8"/><circle cx="264" cy="328" r="8"/><circle cx="248" cy="280" r="8"/><circle cx="232" cy="328" r="8"/><circle cx="296" cy="328" r="8"/><circle cx="432" cy="232" r="8"/><circle cx="448" cy="280" r="8"/><circle cx="432" cy="328" r="8"/><circle cx="416" cy="280" r="8"/><circle cx="400" cy="328" r="8"/><circle cx="464" cy="328" r="8"/><path d="M504 496h-25.42A48.108 48.108 0 00440 456.812v-27.42c11.8 3.768 23.546 2.97 34.214-2.75 22.3-11.955 36.542-44.692 37.138-46.079a8 8 0 00-5.912-11.025c-1.487-.272-36.637-6.518-58.931 5.435A41.6 41.6 0 00432 387.729a41.6 41.6 0 00-14.509-12.756c-22.294-11.954-57.447-5.707-58.931-5.435a8 8 0 00-5.912 11.025c.6 1.387 14.843 34.124 37.138 46.079 10.616 5.692 22.356 6.537 34.214 2.749v27.158A48.11 48.11 0 00383.939 496H302.58A48.108 48.108 0 00264 456.812v-27.42c11.8 3.768 23.546 2.97 34.214-2.75 22.3-11.955 36.542-44.692 37.138-46.079a8 8 0 00-5.912-11.025c-1.487-.272-36.637-6.518-58.931 5.435a41.613 41.613 0 00-14.88 13.277 41.618 41.618 0 00-14.879-13.277c-22.294-11.954-57.445-5.707-58.931-5.435a8 8 0 00-5.911 11.025c.6 1.387 14.842 34.124 37.138 46.079 11.143 5.975 23.2 6.451 34.954 2.5v27.4A48.11 48.11 0 00207.939 496H126.58A48.108 48.108 0 0088 456.812v-27.42c11.8 3.768 23.546 2.97 34.214-2.75 22.295-11.955 36.542-44.692 37.138-46.079a8 8 0 00-5.912-11.025c-1.487-.272-36.637-6.518-58.931 5.435a41.613 41.613 0 00-14.88 13.277 41.618 41.618 0 00-14.879-13.277c-22.294-11.954-57.445-5.707-58.931-5.435a8 8 0 00-5.911 11.025c.6 1.387 14.842 34.124 37.138 46.079 11.143 5.975 23.2 6.451 34.954 2.5v27.4A48.11 48.11 0 0031.939 496H8a8 8 0 000 16h496a8 8 0 000-16zm-12.3-111.995c-12.25 21.809-28.288 39.051-51.09 28.522a53.21 53.21 0 00-.484-4.135c5.152-23.092 27.885-26.155 51.574-24.387zm-68.3 28.523c-22.851 10.544-38.873-6.775-51.09-28.523 23.742-1.775 46.423 1.323 51.574 24.387a48.755 48.755 0 00-.484 4.136zm-175.969-.371c-22.931 11.243-39.231-5.664-51.867-28.152 24.963-1.866 48.1 1.953 52.009 26.655a52.22 52.22 0 00-.147 1.497zm-176 0C48.5 423.4 32.2 406.493 19.564 384.005c24.959-1.866 48.1 1.951 52.009 26.655a52.22 52.22 0 00-.147 1.497zm68.269-28.152c-12.638 22.5-28.986 39.375-51.862 28.151a53.673 53.673 0 00-.146-1.5c3.908-24.707 27.053-28.513 52.008-26.651zM48.272 496c8.228-31.847 53.728-31.922 61.975 0zM315.7 384.005c-12.654 22.528-29 39.371-51.862 28.151a53.673 53.673 0 00-.146-1.5c3.908-24.706 27.051-28.513 52.008-26.651zM224.272 496c8.228-31.847 53.728-31.922 61.975 0zm176 0c8.228-31.847 53.728-31.922 61.975 0z"/><circle cx="88" cy="232" r="8"/><circle cx="264" cy="184" r="8"/><circle cx="224" cy="16" r="8"/><circle cx="432" cy="184" r="8"/><circle cx="88" cy="184" r="8"/><circle cx="104" cy="280" r="8"/><circle cx="88" cy="328" r="8"/><circle cx="72" cy="280" r="8"/><circle cx="56" cy="328" r="8"/><circle cx="120" cy="328" r="8"/><path d="M264 96h24a8 8 0 000-16h-16V48a8 8 0 00-16 0v40a8 8 0 008 8z"/><path d="M504 88H343.6a80.018 80.018 0 000-16H504a8 8 0 000-16H340.317A80.14 80.14 0 00264 0a8 8 0 000 16 64 64 0 010 128c-51.506 0-81.256-57.684-53.228-99.55a8 8 0 10-13.3-8.9 79.578 79.578 0 00-9.8 20.45H8a8 8 0 000 16h176.407a79.42 79.42 0 00-.006 16H8a8 8 0 000 16h56v48a8 8 0 008 8h32a8 8 0 008-8v-48h75.683a80 80 0 00152.634 0H408v48a8 8 0 008 8h32a8 8 0 008-8v-48h48a8 8 0 000-16zM96 144H80v-40h16zm344 0h-16v-40h16z"/></g></symbol></svg>