<svg id="Layer_1" height="512" viewBox="0 0 512 512" width="512" xmlns="http://www.w3.org/2000/svg" data-name="Layer 1"><path d="m217.389 393.271-.855-14.712c-.01-.164-.026-.329-.049-.492a79.256 79.256 0 0 0 -52.63-64.021l-4.782-1.664a46.844 46.844 0 0 1 -17.619-11.05l-23.248-23.249-7.956-26.922a36.17 36.17 0 0 0 -31.22-26.561l-1.306-4.359c-.014-.048-.03-.1-.045-.143-3.706-11.327-16.032-18.619-28.593-17.786l-.396-1.312a32.6 32.6 0 0 0 -39.136-22.334 6 6 0 0 0 -4.454 6.919l25.473 137.087a6.012 6.012 0 0 0 .215.824 87.051 87.051 0 0 0 32.68 43.415l55.632 38.331c.1.073.212.143.323.208a18.633 18.633 0 0 1 8.233 10.422l4.23 57.151a6 6 0 0 0 4.071 5.246l1.145.384a122.94 122.94 0 0 0 77.23.536l2.791-.894a6 6 0 0 0 4.169-5.714v-31.981c0-13-1.143-27.05-3.6-44.236-.14-1.023-.245-2.064-.303-3.093zm-118.713-138.941c.013.053.028.106.044.157l2.66 9a38.709 38.709 0 0 0 -11.955-4.2l-6.487-21.647a24.155 24.155 0 0 1 15.738 16.69zm-32.423-30.559 10.61 35.4a38.789 38.789 0 0 0 -9.9 2.849l-14.263-47.628c5.857.577 11.71 3.859 13.553 9.379zm143.041 244.423a110.962 110.962 0 0 1 -65.736-.067l-3.981-53.787a5.879 5.879 0 0 0 -.21-1.19 30.585 30.585 0 0 0 -13.606-17.892l-55.471-38.218a74.992 74.992 0 0 1 -28-36.987l-24.218-130.347a20.614 20.614 0 0 1 19.121 14.727l19.319 64.41q-.655.6-1.287 1.23a6 6 0 0 0 .2 8.672l27.867 25.455a180.767 180.767 0 0 1 22.173 24.32 6 6 0 1 0 9.568-7.242 192.851 192.851 0 0 0 -23.647-25.937l-22.686-20.717a26.92 26.92 0 0 1 33.008 3.933l31.26 31.259a58.9 58.9 0 0 0 22.159 13.9l4.782 1.664a67.3 67.3 0 0 1 44.657 54.125l.84 14.458c.078 1.361.217 2.741.411 4.1 2.37 16.61 3.475 30.126 3.475 42.54z"/><path d="m502.446 178.666a32.6 32.6 0 0 0 -39.135 22.327l-.4 1.323c-12.558-.831-24.886 6.459-28.594 17.786-.015.047-.031.095-.045.143l-1.302 4.355a36.17 36.17 0 0 0 -31.22 26.557l-7.957 26.923-23.247 23.248a46.848 46.848 0 0 1 -17.618 11.05l-4.784 1.664a79.256 79.256 0 0 0 -52.629 64.021c-.023.163-.039.328-.049.492l-.855 14.716c-.058 1.025-.163 2.066-.309 3.094-2.453 17.185-3.6 31.24-3.6 44.235v31.977a6 6 0 0 0 4.062 5.678 124.547 124.547 0 0 0 78.389.536l1.563-.51a6 6 0 0 0 4.111-5.131l5.492-57.223a18.629 18.629 0 0 1 8.252-10.481c.111-.065.218-.135.323-.208l55.652-38.338a87.037 87.037 0 0 0 32.666-43.4 6.012 6.012 0 0 0 .215-.824l25.473-137.091a6 6 0 0 0 -4.454-6.919zm-56.7 45.1c1.843-5.523 7.7-8.806 13.556-9.381l-13.762 46.015-.5 1.619a38.789 38.789 0 0 0 -9.9-2.849zm-32.466 30.721c.016-.051.031-.1.044-.157a24.155 24.155 0 0 1 15.738-16.687l-6.488 21.648a38.756 38.756 0 0 0 -11.954 4.2zm56.428 65.566a74.978 74.978 0 0 1 -27.984 36.977l-55.485 38.228a30.585 30.585 0 0 0 -13.606 17.892 5.884 5.884 0 0 0 -.2 1.059l-5.17 53.861a112.6 112.6 0 0 1 -64.558.132v-27.602c0-12.414 1.1-25.93 3.475-42.539.194-1.361.333-2.741.411-4.1l.84-14.462a67.3 67.3 0 0 1 44.656-54.125l4.784-1.664a58.907 58.907 0 0 0 22.158-13.9l31.26-31.258a26.921 26.921 0 0 1 33.008-3.934l-22.684 20.72a192.851 192.851 0 0 0 -23.647 25.937 6 6 0 1 0 9.568 7.242 180.767 180.767 0 0 1 22.173-24.32l27.872-25.458a6 6 0 0 0 .195-8.672q-.631-.633-1.287-1.231l19.32-64.411a20.611 20.611 0 0 1 19.12-14.725z"/><path d="m340.924 142.677c17.639-14.467 28.331-34.577 30.919-58.158l6.419-50.87a6 6 0 0 0 -6.215-6.745c-52.716 2.3-94.065 55.281-92.172 118.1l.4 13.271a261.155 261.155 0 0 0 -15.543 38.359 97.839 97.839 0 0 0 -12.91-21.655 254.838 254.838 0 0 0 -6.13-36.016c-5.964-23.212-21.316-41.211-41.067-48.147l-62.945-22.111a6 6 0 0 0 -7.983 5.918c1.67 38.991 15.63 72.222 38.3 91.171 14.026 11.724 31.131 17.759 50.03 17.759a93.993 93.993 0 0 0 12.51-.853l7.724-.479a86.269 86.269 0 0 1 13.553 24.447c4.079 11.359 5.54 22.28 4.371 32.525h-62.664a6 6 0 0 0 -5.957 6.728l8.328 68.166a6 6 0 0 0 5.956 5.272h100.3a6 6 0 0 0 5.956-5.272l8.328-68.166a6 6 0 0 0 -5.957-6.728h-42.231a77.325 77.325 0 0 0 -.809-20.258c3.592-18.583 10.8-37.506 19.043-54.27 18.898-2.995 36.746-10.752 50.446-21.988zm24.5-103.1-5.488 43.49-.012.1c-4.336 39.7-33.284 60.493-62.228 67.8 4.306-7.658 8.684-14.6 12.815-20.517l23.721-33.963a6 6 0 0 0 -9.838-6.871l-23.721 33.963c-2.852 4.084-5.818 8.643-8.8 13.575 1.47-50.054 32.84-91.56 73.546-97.579zm-171.084 81.323a6 6 0 1 0 -8.082 8.871l45.226 41.2c-20.1 2.364-37.523-2.456-51.792-14.382-18.382-15.366-30.323-41.847-33.385-73.538l54.341 19.084c15.963 5.606 28.456 20.489 33.421 39.811 1.431 5.568 2.685 11.789 3.761 18.572zm113.36 130.293-6.861 56.166h-89.68l-6.859-56.166z"/></svg>